<svg xmlns="http://www.w3.org/2000/svg" viewBox="0 0 135.34 135.34"><defs><style>.cls-1{isolation:isolate;}.cls-2{mix-blend-mode:soft-light;}.cls-3,.cls-5{font-size:49.67px;font-family:FiraSans-ExtraLightItalic, Fira Sans;font-weight:200;font-style:italic;}.cls-4{letter-spacing:-0.24em;}.cls-5{fill:#fff;}.cls-6{opacity:0.99;}.cls-7{fill:#313e40;}.cls-8{fill:#f1f2f2;}</style></defs><title>Asset 10</title><g class="cls-1"><g id="Layer_2" data-name="Layer 2"><g id="Layer_1-2" data-name="Layer 1"><g class="cls-2"><text class="cls-3" transform="matrix(1.45, -0.04, 0.03, 1, 34.45, 81.93)">J<tspan class="cls-4" x="14.16" y="0">R</tspan></text></g><text class="cls-5" transform="matrix(1.45, -0.04, 0.03, 1, 34.45, 80.93)">J<tspan class="cls-4" x="14.16" y="0">R</tspan></text><g class="cls-6"><path class="cls-7" d="M67.34,7,40.39,1.76,25.81,25.05,3.27,40.76,9.05,67.65,3.27,94.54l22.54,15.71,14.58,23.29,27-5.19,27,5.19,14.58-23.29,22.54-15.71-5.78-26.89,5.78-26.89L108.88,25.05,94.3,1.76Zm.33,128.39L45.82,120.43l-26-4.91-4.91-26L0,67.67,14.91,45.82l4.91-26,26-4.91L67.67,0,89.52,14.91l26,4.91,4.91,26,14.91,21.85L120.43,89.52l-4.91,26-26,4.91Z"/><path class="cls-8" d="M67.34,7,40.39,1.76,25.81,25.05,3.27,40.76,9.05,67.65,3.27,94.54l22.54,15.71,14.58,23.29,27-5.19,27,5.19,14.58-23.29,22.54-15.71-5.78-26.89,5.78-26.89L108.88,25.05,94.3,1.76Zm.33,128.39L45.82,120.43l-26-4.91-4.91-26L0,67.67,14.91,45.82l4.91-26,26-4.91L67.67,0,89.52,14.91l26,4.91,4.91,26,14.91,21.85L120.43,89.52l-4.91,26-26,4.91Z"/></g></g></g></g></svg>