<svg xmlns="http://www.w3.org/2000/svg" viewBox="0 0 135.34 135.34"><defs><style>.cls-1{isolation:isolate;}.cls-2{mix-blend-mode:soft-light;}.cls-3{fill:#fff;}.cls-4{opacity:0.99;}.cls-5{fill:#313e40;}.cls-6{fill:#f1f2f2;}</style></defs><title>Asset 19</title><g class="cls-1"><g id="Layer_2" data-name="Layer 2"><g id="Layer_1-2" data-name="Layer 1"><g class="cls-2"><path d="M28.09,75.29l8.16-5.65a8.26,8.26,0,0,0,6,2.36,5.43,5.43,0,0,0,3-.84A3.87,3.87,0,0,0,46.74,69L49.5,58.39l-13.09.34,1.8-6.81,25.91-.67L59.71,68.09A12.7,12.7,0,0,1,54,76.29Q49.69,78.84,42.16,79,32.49,79.29,28.09,75.29Z"/><path d="M101,65.22a17,17,0,0,1-7.57,4.13l6.63,7.58-13.47.35L81,70.73l-3.19.08L76,77.55l-13,.33,7-26.79,17.26-.44q7.59-.19,11.86,2c2.85,1.46,4.3,3.57,4.37,6.33A8.31,8.31,0,0,1,101,65.22ZM85.52,57.61l-4.34.12L79.52,64l5.34-.14a7.84,7.84,0,0,0,4.15-1,2.92,2.92,0,0,0,1.42-2.65Q90.37,57.5,85.52,57.61Z"/></g><path class="cls-3" d="M28.09,74.29l8.16-5.65a8.26,8.26,0,0,0,6,2.36,5.43,5.43,0,0,0,3-.84A3.87,3.87,0,0,0,46.74,68L49.5,57.39l-13.09.34,1.8-6.81,25.91-.67L59.71,67.09A12.7,12.7,0,0,1,54,75.29Q49.69,77.84,42.16,78,32.49,78.29,28.09,74.29Z"/><path class="cls-3" d="M101,64.22a17,17,0,0,1-7.57,4.13l6.63,7.58-13.47.35L81,69.73l-3.19.08L76,76.55l-13,.33,7-26.79,17.26-.44q7.59-.19,11.86,2c2.85,1.46,4.3,3.57,4.37,6.33A8.31,8.31,0,0,1,101,64.22ZM85.52,56.61l-4.34.12L79.52,63l5.34-.14a7.84,7.84,0,0,0,4.15-1,2.92,2.92,0,0,0,1.42-2.65Q90.37,56.5,85.52,56.61Z"/><g class="cls-4"><path class="cls-5" d="M67.34,7,40.39,1.76,25.81,25.05,3.27,40.76,9.05,67.65,3.27,94.54l22.54,15.71,14.58,23.29,27-5.19,27,5.19,14.58-23.29,22.54-15.71-5.78-26.89,5.78-26.89L108.88,25.05,94.3,1.76Zm.33,128.39L45.82,120.43l-26-4.91-4.91-26L0,67.67,14.91,45.82l4.91-26,26-4.91L67.67,0,89.52,14.91l26,4.91,4.91,26,14.91,21.85L120.43,89.52l-4.91,26-26,4.91Z"/><path class="cls-6" d="M67.34,7,40.39,1.76,25.81,25.05,3.27,40.76,9.05,67.65,3.27,94.54l22.54,15.71,14.58,23.29,27-5.19,27,5.19,14.58-23.29,22.54-15.71-5.78-26.89,5.78-26.89L108.88,25.05,94.3,1.76Zm.33,128.39L45.82,120.43l-26-4.91-4.91-26L0,67.67,14.91,45.82l4.91-26,26-4.91L67.67,0,89.52,14.91l26,4.91,4.91,26,14.91,21.85L120.43,89.52l-4.91,26-26,4.91Z"/></g></g></g></g></svg>