<svg xmlns="http://www.w3.org/2000/svg" viewBox="0 0 135.34 135.34"><defs><style>.cls-1{isolation:isolate;}.cls-2{mix-blend-mode:soft-light;}.cls-3{fill:#fff;}.cls-4{opacity:0.99;}.cls-5{fill:#313e40;}.cls-6{fill:#f1f2f2;}</style></defs><title>Asset 23</title><g class="cls-1"><g id="Layer_2" data-name="Layer 2"><g id="Layer_1-2" data-name="Layer 1"><g class="cls-2"><path d="M30.61,77.24l8.16-5.65A8.26,8.26,0,0,0,44.72,74a5.43,5.43,0,0,0,3-.84,3.89,3.89,0,0,0,1.57-2.21L52,60.34l-13.09.34,1.81-6.82,25.9-.66L62.23,70a12.7,12.7,0,0,1-5.73,8.2c-2.86,1.7-6.79,2.61-11.82,2.74Q35,81.24,30.61,77.24Z"/><path d="M99.51,68.05a16.85,16.85,0,0,1-7.57,4.13l6.64,7.59-13.48.34-5.61-6.54-3.19.08-1.75,6.74-13,.33,7-26.79,17.27-.44q7.59-.2,11.85,2t4.38,6.33A8.32,8.32,0,0,1,99.51,68.05Zm-15.46-7.6-4.35.11-1.65,6.28,5.33-.14a7.8,7.8,0,0,0,4.16-1A2.93,2.93,0,0,0,89,63Q88.89,60.33,84.05,60.45Z"/></g><path class="cls-3" d="M30.61,76.24l8.16-5.65A8.26,8.26,0,0,0,44.72,73a5.43,5.43,0,0,0,3-.84,3.89,3.89,0,0,0,1.57-2.21L52,59.34l-13.09.34,1.81-6.82,25.9-.66L62.23,69a12.7,12.7,0,0,1-5.73,8.2c-2.86,1.7-6.79,2.61-11.82,2.74Q35,80.24,30.61,76.24Z"/><path class="cls-3" d="M99.51,67.05a16.85,16.85,0,0,1-7.57,4.13l6.64,7.59-13.48.34-5.61-6.54-3.19.08-1.75,6.74-13,.33,7-26.79,17.27-.44q7.59-.2,11.85,2t4.38,6.33A8.32,8.32,0,0,1,99.51,67.05Zm-15.46-7.6-4.35.11-1.65,6.28,5.33-.14a7.8,7.8,0,0,0,4.16-1A2.93,2.93,0,0,0,89,62Q88.89,59.33,84.05,59.45Z"/><g class="cls-4"><path class="cls-5" d="M67.34,7,40.39,1.76,25.81,25.05,3.27,40.76,9.05,67.65,3.27,94.54l22.54,15.71,14.58,23.29,27-5.19,27,5.19,14.58-23.29,22.54-15.71-5.78-26.89,5.78-26.89L108.88,25.05,94.3,1.76Zm.33,128.39L45.82,120.43l-26-4.91-4.91-26L0,67.67,14.91,45.82l4.91-26,26-4.91L67.67,0,89.52,14.91l26,4.91,4.91,26,14.91,21.85L120.43,89.52l-4.91,26-26,4.91Z"/><path class="cls-6" d="M67.34,7,40.39,1.76,25.81,25.05,3.27,40.76,9.05,67.65,3.27,94.54l22.54,15.71,14.58,23.29,27-5.19,27,5.19,14.58-23.29,22.54-15.71-5.78-26.89,5.78-26.89L108.88,25.05,94.3,1.76Zm.33,128.39L45.82,120.43l-26-4.91-4.91-26L0,67.67,14.91,45.82l4.91-26,26-4.91L67.67,0,89.52,14.91l26,4.91,4.91,26,14.91,21.85L120.43,89.52l-4.91,26-26,4.91Z"/></g></g></g></g></svg>