<svg xmlns="http://www.w3.org/2000/svg" viewBox="0 0 135.34 135.34"><defs><style>.cls-1{isolation:isolate;}.cls-2{mix-blend-mode:soft-light;}.cls-3{fill:#fff;}.cls-4{opacity:0.99;}.cls-5{fill:#313e40;}.cls-6{fill:#f1f2f2;}</style></defs><title>Asset 20</title><g class="cls-1"><g id="Layer_2" data-name="Layer 2"><g id="Layer_1-2" data-name="Layer 1"><g class="cls-2"><path d="M29.93,79.12l8.17-5.65a8.24,8.24,0,0,0,5.95,2.36A5.37,5.37,0,0,0,47,75a3.84,3.84,0,0,0,1.57-2.21l2.76-10.56-13.09.34,1.8-6.81L66,55.08l-4.4,16.84a12.67,12.67,0,0,1-5.74,8.2Q51.55,82.67,44,82.86,34.34,83.12,29.93,79.12Z"/><path d="M102.84,69.05a17,17,0,0,1-7.57,4.13l6.63,7.58-13.47.35-5.62-6.55-3.19.08-1.75,6.74-13,.33,7-26.79,17.27-.44q7.59-.19,11.86,2t4.37,6.33A8.35,8.35,0,0,1,102.84,69.05ZM87.37,61.44,83,61.56l-1.66,6.27,5.34-.14a7.86,7.86,0,0,0,4.15-1A2.91,2.91,0,0,0,92.28,64C92.23,62.22,90.6,61.36,87.37,61.44Z"/></g><path class="cls-3" d="M29.93,78.12l8.17-5.65a8.24,8.24,0,0,0,5.95,2.36A5.37,5.37,0,0,0,47,74a3.84,3.84,0,0,0,1.57-2.21l2.76-10.56-13.09.34,1.8-6.81L66,54.08l-4.4,16.84a12.67,12.67,0,0,1-5.74,8.2Q51.55,81.67,44,81.86,34.34,82.12,29.93,78.12Z"/><path class="cls-3" d="M102.84,68.05a17,17,0,0,1-7.57,4.13l6.63,7.58-13.47.35-5.62-6.55-3.19.08-1.75,6.74-13,.33,7-26.79,17.27-.44q7.59-.19,11.86,2t4.37,6.33A8.35,8.35,0,0,1,102.84,68.05ZM87.37,60.44,83,60.56l-1.66,6.27,5.34-.14a7.86,7.86,0,0,0,4.15-1A2.91,2.91,0,0,0,92.28,63C92.23,61.22,90.6,60.36,87.37,60.44Z"/><g class="cls-4"><path class="cls-5" d="M67.34,7,40.39,1.76,25.81,25.05,3.27,40.76,9.05,67.65,3.27,94.54l22.54,15.71,14.58,23.29,27-5.19,27,5.19,14.58-23.29,22.54-15.71-5.78-26.89,5.78-26.89L108.88,25.05,94.3,1.76Zm.33,128.39L45.82,120.43l-26-4.91-4.91-26L0,67.67,14.91,45.82l4.91-26,26-4.91L67.67,0,89.52,14.91l26,4.91,4.91,26,14.91,21.85L120.43,89.52l-4.91,26-26,4.91Z"/><path class="cls-6" d="M67.34,7,40.39,1.76,25.81,25.05,3.27,40.76,9.05,67.65,3.27,94.54l22.54,15.71,14.58,23.29,27-5.19,27,5.19,14.58-23.29,22.54-15.71-5.78-26.89,5.78-26.89L108.88,25.05,94.3,1.76Zm.33,128.39L45.82,120.43l-26-4.91-4.91-26L0,67.67,14.91,45.82l4.91-26,26-4.91L67.67,0,89.52,14.91l26,4.91,4.91,26,14.91,21.85L120.43,89.52l-4.91,26-26,4.91Z"/></g></g></g></g></svg>